# xmcd
#
# Track frame offsets: 
#        150
#        10810
#        19919
#        30336
#        41157
#        51282
#        61333
#        70698
#        80437
#        90997
#        100706
#        109499
#        119616
#        133129
#        143244
#        153192
#        163093
#        175161
#        185333
#        196403
#        207625
#        216786
#        227168
#        237574
#        248975
#
# Disc length: 3480 seconds
#
# Revision: 1
# Processed by: cddbd v1.5.2PL0 Copyright (c) Steve Scherf et al.
# Submitted via: ExactAudioCopyFreeDBPlugin 1.0
#
DISCID=640d9619
DTITLE=Various Artist - Red Hot Rockabilly [CD2]
DYEAR=2010
DGENRE=Rockabilly
TTITLE0=Mac Curtis - If I Had Me A Woman
TTITLE1=Charlie Feathers - Get With It
TTITLE2=Don Woody - Barking Up The Wrong Tree
TTITLE3=Gene Vincent - Bluejean Bop
TTITLE4=Elvis Presley - Good Rockin' Tonight
TTITLE5=Johnny Burnette - Drinking Wine Spo-Dee-O-Dee
TTITLE6=Billy Lee Riley - Flying Saucers Rock 'N' Roll
TTITLE7=Carl Perkins - Matchbox
TTITLE8=Webb Pierce - Teenage Boogie
TTITLE9=Sonny Burgess - Red Headed Woman
TTITLE10=Jack Scott - Two Timin' Woman
TTITLE11=Johnny Cash - Get Rhythm
TTITLE12=Buck Griffin - Stutterin' Papa
TTITLE13=Roy Orbison - Domino
TTITLE14=Charlie Feathers - Everybody's Lovin' My Baby
TTITLE15=Eddie Cochran - Skinny Jim
TTITLE16=Warren Smith - A Red Cadillac And A Black Moustache
TTITLE17=Dale Hawkins - Little Pig
TTITLE18=Carl Perkins - Dixie Fried
TTITLE19=Elvis Presley - I Don't Care If The Sun Don't Shine
TTITLE20=Johnny Burnette - All By Myself
TTITLE21=Al Ferrier - No No Baby
TTITLE22=Sonee West - Rock-Ola Ruby
TTITLE23=Don Willis - Boppin' High School Baby
TTITLE24=Sonny Burgess - Restless
EXTD=
EXTT0=
EXTT1=
EXTT2=
EXTT3=
EXTT4=
EXTT5=
EXTT6=
EXTT7=
EXTT8=
EXTT9=
EXTT10=
EXTT11=
EXTT12=
EXTT13=
EXTT14=
EXTT15=
EXTT16=
EXTT17=
EXTT18=
EXTT19=
EXTT20=
EXTT21=
EXTT22=
EXTT23=
EXTT24=
PLAYORDER=
